# xmcd
#
# Track frame offsets:
#	300
#	14649
#	30005
#	45793
#	63282
#	80034
#	95892
#	116846
#	140076
#	157493
#	187734
#	204303
#
# Disc length: 2948 seconds
#
# Revision: 1
# Processed by: cddbd v1.5.2PL0 Copyright (c) Steve Scherf et al.
# Submitted via: audiograbber 1.83.01
#
DISCID=a20b800c
DTITLE=Various Artist - Street November 05 CD1
DYEAR=2005
DGENRE=R&B
TTITLE0=50 Cent - Window Shopper
TTITLE1=Kanye West Ft Adam Levine - Heard Em Say
TTITLE2=Ms Dynamite - Fall In Love Again
TTITLE3=Dwele - Holla
TTITLE4=Choklate - Waitin'
TTITLE5=Slum Village Ft J Isaac - EZ Up
TTITLE6=Earth Wind and Fire Ft Floetry - Elevated
TTITLE7=Lighthead - Surprise Cypher II
TTITLE8=Pete Philly and Perquisite - Grateful
TTITLE9=Quantic Soul Orchestra Ft Alice Russell - Left and Right
TTITLE10=Big Shug - Tha Way It Iz
TTITLE11=Anthony B - World A Reggae Music
EXTD=
EXTT0=
EXTT1=
EXTT2=
EXTT3=
EXTT4=
EXTT5=
EXTT6=
EXTT7=
EXTT8=
EXTT9=
EXTT10=
EXTT11=
PLAYORDER=
